<?xml version="1.0" standalone="no"?>
<!DOCTYPE svg PUBLIC "-//W3C//DTD SVG 20010904//EN"
 "http://www.w3.org/TR/2001/REC-SVG-20010904/DTD/svg10.dtd">
<svg version="1.0" xmlns="http://www.w3.org/2000/svg"
 width="1024.000000pt" height="1024.000000pt" viewBox="0 0 1024.000000 1024.000000"
 preserveAspectRatio="xMidYMid meet">
<metadata>
Created by potrace 1.14, written by Peter Selinger 2001-2017
</metadata>
<g transform="translate(0.000000,1024.000000) scale(0.100000,-0.100000)"
fill="#000000" stroke="none">
<path d="M5596 8265 c-47 -17 -91 -57 -118 -109 -16 -31 -19 -53 -16 -106 4
-77 31 -122 100 -167 75 -50 224 -30 271 37 12 17 21 20 56 14 44 -7 50 -14
25 -35 -28 -23 -45 -69 -46 -121 0 -40 8 -67 38 -126 37 -72 37 -75 19 -88
-10 -8 -24 -14 -31 -14 -7 0 -16 -4 -19 -10 -3 -5 22 -99 56 -207 56 -175 68
-205 111 -261 55 -73 78 -140 78 -231 -1 -141 -49 -252 -154 -357 -81 -81
-156 -121 -250 -135 -34 -5 -228 -9 -432 -9 l-371 0 -14 -27 c-8 -15 -58 -88
-112 -163 -137 -187 -151 -217 -152 -311 0 -68 3 -79 28 -112 36 -47 63 -63
83 -47 15 13 28 7 88 -42 28 -23 28 -27 20 -74 -13 -68 -36 -78 -155 -69 -80
6 -92 10 -106 31 -29 45 -42 30 -45 -53 -2 -61 -6 -78 -18 -78 -12 0 -15 14
-15 65 -1 84 0 83 -34 66 -16 -9 -66 -18 -112 -22 -79 -6 -86 -9 -115 -40 -37
-40 -78 -45 -118 -13 -34 27 -35 71 -1 104 28 29 60 31 112 10 45 -19 46 -19
33 5 -10 18 -8 20 19 20 20 0 34 7 41 19 11 21 50 37 116 47 37 5 43 4 49 -16
4 -12 9 -20 11 -18 3 3 -40 124 -51 146 -1 1 -32 -5 -68 -14 -82 -21 -83 -20
-138 90 -85 168 -181 279 -327 378 -127 85 -215 122 -304 126 -72 4 -77 5 -83
29 l-6 25 -177 -5 c-190 -5 -292 -24 -430 -80 -135 -56 -308 -193 -400 -319
-100 -136 -176 -318 -202 -481 -18 -107 -8 -300 20 -397 47 -165 149 -338 272
-461 81 -81 223 -177 321 -217 40 -16 81 -33 92 -38 13 -6 -24 -10 -110 -11
-221 -4 -626 -23 -699 -34 -120 -17 -108 -25 65 -44 387 -42 1145 -59 2794
-59 1638 -1 2482 17 2859 60 130 14 151 19 125 28 -55 20 -221 32 -744 54
l-170 7 69 23 c309 103 535 354 633 702 27 99 25 375 -5 483 -98 354 -386 640
-737 732 -89 23 -253 38 -341 31 l-82 -6 -10 28 c-172 443 -368 960 -411 1087
-59 173 -57 171 -119 167 -41 -3 -52 -1 -52 11 0 40 44 149 80 199 48 68 53
116 17 152 -18 18 -43 26 -113 36 -49 6 -111 15 -137 18 -48 7 -49 7 -67 62
-40 118 -164 178 -284 135z m659 -1742 c21 -54 48 -125 61 -157 31 -77 30 -87
-7 -108 -21 -12 -29 -23 -25 -35 3 -13 -13 -32 -56 -68 -73 -60 -170 -168
-225 -250 -120 -179 -170 -362 -160 -579 7 -154 32 -250 102 -391 102 -207
259 -366 462 -467 57 -28 102 -52 101 -52 -2 -1 -441 0 -977 2 -946 4 -974 5
-978 23 -7 24 -20 24 -28 0 -6 -19 -20 -19 -418 -20 l-412 -1 71 34 c270 127
477 368 543 632 10 43 22 98 26 122 5 30 11 42 24 42 24 0 182 -47 191 -57 5
-4 -11 -120 -35 -258 -55 -314 -60 -370 -32 -347 8 7 29 9 50 5 32 -5 38 -3
45 18 8 20 76 399 97 537 4 23 7 42 8 43 1 1 108 7 237 14 255 14 307 23 385
61 84 42 163 134 196 227 7 21 20 37 29 37 8 0 42 13 76 29 101 48 153 133
140 229 -8 57 -30 98 -82 152 l-44 46 31 59 c18 33 34 62 37 65 8 9 91 -93
122 -152 25 -47 36 -58 56 -58 34 0 67 36 89 95 10 28 67 169 127 314 59 145
111 274 114 287 3 13 10 24 14 24 4 0 25 -44 45 -97z m-2736 -399 c91 -20 213
-81 306 -151 78 -60 153 -130 144 -136 -14 -10 -94 -43 -149 -62 -36 -13 -123
-55 -195 -94 -136 -75 -136 -75 -215 -46 -64 24 -153 16 -221 -21 -128 -70
-164 -250 -76 -381 77 -114 247 -135 365 -45 47 36 62 40 312 82 176 30 166
22 162 114 -3 68 -6 77 -20 71 -69 -27 -312 -57 -312 -38 0 35 170 150 236
159 22 3 68 18 104 34 109 47 107 47 121 -2 8 -26 13 -113 13 -218 1 -174 1
-175 -32 -259 -102 -266 -296 -442 -546 -496 -93 -21 -302 -16 -376 8 -189 62
-314 150 -416 293 -107 149 -150 296 -141 479 10 202 77 354 222 501 194 197
440 268 714 208z m3551 -35 c205 -56 376 -202 475 -404 58 -118 75 -187 76
-311 0 -168 -38 -293 -133 -436 -98 -145 -251 -253 -425 -299 -106 -28 -278
-28 -384 0 -213 55 -402 208 -498 404 -59 120 -74 191 -75 332 0 105 4 130 28
200 49 143 121 247 233 340 37 30 70 52 74 48 11 -13 145 -390 174 -493 34
-118 64 -170 117 -205 53 -35 106 -42 161 -21 56 21 91 59 112 121 22 65 16
101 -44 250 -44 108 -69 181 -146 422 -13 39 -20 75 -17 78 12 13 196 -5 272
-26z"/>
<path d="M3507 7043 c-4 -3 -7 -21 -7 -39 0 -31 3 -33 101 -74 179 -76 322
-173 465 -315 85 -85 204 -237 204 -261 0 -38 154 -311 194 -344 16 -12 20
-12 35 9 10 12 28 42 41 66 l23 43 -56 101 c-32 56 -57 106 -57 113 0 8 35 9
124 6 118 -6 126 -5 143 16 42 47 374 617 380 651 l6 35 -795 0 c-437 0 -798
-3 -801 -7z"/>
<path d="M3330 3710 c-43 -43 -15 -130 41 -130 60 0 88 38 74 100 -10 48 -79
66 -115 30z"/>
<path d="M7147 3715 c-11 -11 -17 -33 -17 -66 0 -44 3 -51 26 -59 35 -14 77
-13 92 2 14 14 16 96 3 116 -14 22 -85 27 -104 7z"/>
<path d="M7461 3721 c-17 -11 -18 -105 -1 -126 8 -10 30 -15 61 -15 44 0 51 3
59 26 14 35 12 98 -2 112 -14 14 -96 16 -117 3z"/>
<path d="M7783 3643 c-20 -7 -18 -732 1 -797 34 -113 99 -161 280 -208 61 -16
122 -37 136 -47 46 -33 65 -79 65 -156 0 -90 -22 -129 -90 -165 -44 -22 -62
-25 -155 -26 -58 0 -111 -4 -118 -8 -23 -14 -13 -67 18 -102 31 -35 31 -58 2
-81 -35 -28 -110 0 -142 52 -30 49 -28 144 5 183 36 43 75 56 143 48 113 -13
106 -14 118 23 26 79 -22 121 -136 121 -92 0 -155 -25 -217 -86 -60 -59 -78
-107 -77 -204 1 -113 54 -199 151 -246 116 -57 246 -26 292 69 12 24 21 53 21
64 0 17 8 21 46 27 101 13 193 74 240 158 27 50 29 60 29 163 0 117 -9 154
-52 213 -40 53 -90 79 -208 107 -136 32 -181 56 -212 114 -22 42 -23 54 -23
258 l0 213 173 0 c156 0 176 2 190 18 21 23 22 52 3 78 -13 17 -30 19 -190 22
l-176 3 0 84 c0 97 -11 115 -68 114 -20 0 -43 -3 -49 -6z"/>
<path d="M1657 3450 c-195 -31 -304 -180 -238 -327 37 -80 109 -115 361 -174
165 -39 221 -65 244 -114 44 -92 -40 -175 -194 -191 -111 -11 -266 31 -326 87
-19 18 -27 19 -62 10 -118 -32 -60 -117 121 -178 75 -25 95 -27 227 -27 128 0
152 3 204 23 71 28 133 82 157 136 22 48 25 152 5 198 -36 86 -110 124 -364
188 -107 27 -202 54 -211 61 -55 43 -56 95 -3 148 48 48 128 64 242 50 91 -12
128 -23 202 -63 l58 -30 35 24 c19 13 35 29 35 36 0 19 -56 69 -102 92 -95 45
-274 69 -391 51z"/>
<path d="M3857 3449 c-93 -22 -169 -87 -203 -175 -17 -45 -19 -79 -19 -383 l0
-334 28 -10 c15 -5 43 -6 62 -3 l33 7 4 322 c3 302 5 325 24 368 14 30 35 54
60 70 35 22 50 24 149 24 98 0 115 -3 152 -24 30 -17 50 -39 65 -70 22 -45 23
-54 23 -366 l0 -320 27 -9 c17 -6 39 -6 60 0 l33 10 7 249 c8 275 2 410 -19
469 -29 85 -100 144 -205 172 -58 15 -221 17 -281 3z"/>
<path d="M5917 3449 c-59 -14 -112 -45 -146 -86 -56 -67 -61 -105 -68 -467 -6
-313 -5 -330 12 -342 24 -17 76 -18 98 -1 14 11 16 50 19 332 4 334 6 354 50
395 34 32 62 41 168 54 l95 11 3 51 c3 50 2 51 -29 58 -43 8 -156 6 -202 -5z"/>
<path d="M6450 3447 c-69 -16 -107 -36 -146 -79 -74 -78 -83 -136 -84 -525 l0
-283 23 -5 c13 -4 43 -5 68 -3 l44 3 5 335 c5 313 6 337 25 370 33 56 92 80
197 80 128 0 183 -26 219 -105 17 -36 19 -71 19 -357 0 -303 1 -318 19 -328
27 -14 74 -13 95 3 16 12 17 38 14 357 l-3 345 -28 53 c-32 61 -88 105 -161
128 -69 21 -237 27 -306 11z"/>
<path d="M2343 3435 l-23 -16 0 -433 0 -433 28 -6 c15 -3 43 -2 62 2 l35 7 5
139 5 140 235 6 c263 7 323 19 387 81 117 113 104 372 -24 461 -82 57 -105 60
-408 64 -246 4 -283 2 -302 -12z m593 -131 c64 -47 86 -109 73 -207 -7 -58
-33 -96 -85 -122 -34 -17 -65 -20 -256 -23 l-218 -4 0 192 0 191 229 -3 c214
-3 232 -4 257 -24z"/>
<path d="M4592 3443 c-13 -3 -27 -16 -33 -29 -5 -15 -9 -203 -9 -439 0 -399 1
-415 19 -425 25 -13 67 -13 92 0 18 10 19 23 19 200 l0 190 243 0 c224 0 245
2 260 18 20 22 22 77 5 89 -7 4 -123 10 -258 13 l-245 5 -3 133 -3 132 271 0
c257 0 271 1 290 20 11 11 20 29 20 40 0 11 -9 29 -20 40 -19 19 -32 20 -322
19 -167 -1 -313 -4 -326 -6z"/>
<path d="M8343 3440 c-13 -5 -23 -17 -23 -27 0 -9 31 -65 69 -123 38 -58 110
-170 160 -249 l91 -145 0 -168 c0 -155 1 -168 19 -178 25 -13 67 -13 92 0 18
10 19 23 19 177 l0 166 151 233 c166 258 180 284 160 308 -18 22 -84 21 -103
-1 -9 -10 -69 -101 -133 -203 -64 -102 -123 -191 -129 -198 -10 -11 -38 28
-140 196 -69 116 -133 213 -142 216 -22 8 -65 6 -91 -4z"/>
<path d="M3317 3178 c-4 -145 -7 -340 -7 -435 0 -166 1 -172 22 -187 27 -19
68 -21 90 -3 14 10 16 67 22 433 3 232 4 429 0 438 -5 12 -20 16 -63 16 l-58
0 -6 -262z"/>
<path d="M5401 3426 c-8 -9 -10 -134 -9 -441 l3 -428 28 -10 c15 -5 44 -6 63
-3 l34 7 0 444 0 445 -54 0 c-33 0 -58 -5 -65 -14z"/>
<path d="M7153 3433 c-13 -9 -31 -783 -19 -846 8 -43 37 -55 89 -40 l32 9 0
439 0 440 -45 3 c-25 1 -50 -1 -57 -5z"/>
<path d="M7466 3418 c-14 -19 -16 -76 -16 -423 0 -220 3 -410 6 -423 6 -21 11
-23 63 -20 l56 3 3 429 c1 308 -1 433 -9 442 -19 23 -85 18 -103 -8z"/>
</g>
</svg>
